<?xml version="1.0" encoding="UTF-8" standalone="no"?>
<svg
   xmlns:dc="http://purl.org/dc/elements/1.1/"
   xmlns:cc="http://creativecommons.org/ns#"
   xmlns:rdf="http://www.w3.org/1999/02/22-rdf-syntax-ns#"
   xmlns:svg="http://www.w3.org/2000/svg"
   xmlns="http://www.w3.org/2000/svg"
   xmlns:sodipodi="http://sodipodi.sourceforge.net/DTD/sodipodi-0.dtd"
   xmlns:inkscape="http://www.inkscape.org/namespaces/inkscape"
   inkscape:version="1.0 (4035a4fb49, 2020-05-01)"
   sodipodi:docname="LogoPSD.svg"
   id="svg24"
   preserveAspectRatio="xMidYMid meet"
   viewBox="0 0 985.000000 995.000000"
   height="995.000000pt"
   width="985.000000pt"
   version="1.0">
  <metadata
     id="metadata30">
    <rdf:RDF>
      <cc:Work
         rdf:about="">
        <dc:format>image/svg+xml</dc:format>
        <dc:type
           rdf:resource="http://purl.org/dc/dcmitype/StillImage" />
      </cc:Work>
    </rdf:RDF>
  </metadata>
  <defs
     id="defs28" />
  <sodipodi:namedview
     inkscape:current-layer="svg24"
     inkscape:window-maximized="1"
     inkscape:window-y="-9"
     inkscape:window-x="-9"
     inkscape:cy="759.63942"
     inkscape:cx="-298.43855"
     inkscape:zoom="0.31704794"
     showgrid="false"
     id="namedview26"
     inkscape:window-height="1051"
     inkscape:window-width="1920"
     inkscape:pageshadow="2"
     inkscape:pageopacity="0"
     guidetolerance="10"
     gridtolerance="10"
     objecttolerance="10"
     borderopacity="1"
     bordercolor="#666666"
     pagecolor="#ffffff" />
  <g
     style="fill:#ea3e4e;fill-opacity:1"
     id="g22"
     stroke="none"
     fill="#000000"
     transform="matrix(0.1,0,0,-0.1,-4.7311457,999.73115)">
    <path
       style="fill:#ea3e4e;fill-opacity:1"
       id="path2"
       d="m 4605,9944 c -22,-2 -92,-9 -155,-15 C 2991,9794 1634,8982 826,7760 377,7082 123,6380 23,5545 -2,5330 -2,4720 23,4505 106,3808 285,3245 625,2607 1097,1721 1775,1037 2639,575 3704,6 4941,-143 6121,155 c 903,229 1768,750 2383,1435 243,270 401,486 593,805 420,699 636,1323 730,2110 14,119 18,227 18,520 0,396 -9,506 -61,820 -349,2072 -1973,3694 -4044,4039 -290,48 -406,58 -760,61 -184,2 -353,1 -375,-1 z M 7635,6691 c 211,-31 392,-85 545,-161 41,-20 87,-40 101,-43 53,-13 266,-166 373,-268 216,-206 349,-407 462,-695 265,-678 61,-1491 -496,-1982 -619,-544 -1557,-602 -2250,-139 -41,28 -77,53 -80,57 -3,3 -16,14 -30,23 -23,16 -121,17 -1340,17 H 3605 l -90,-65 c -364,-261 -807,-378 -1270,-335 -127,12 -350,65 -480,113 -316,119 -591,328 -817,622 -84,108 -200,342 -257,515 -117,358 -115,784 6,1140 132,392 393,724 739,942 51,32 97,58 102,58 5,0 49,19 98,41 184,85 323,126 536,159 117,17 240,18 2728,19 2517,1 2609,0 2735,-18 z" />
    <path
       style="fill:#ea3e4e;fill-opacity:1"
       id="path4"
       d="m 3036,6353 c -3,-16 -17,-95 -31,-178 -14,-82 -30,-170 -36,-195 -5,-25 -25,-135 -45,-245 -19,-110 -44,-245 -54,-300 -10,-55 -30,-167 -44,-250 -15,-82 -29,-158 -32,-167 -5,-16 3,-18 75,-18 76,0 81,1 85,23 26,125 117,720 131,851 17,162 29,121 40,-134 6,-142 25,-398 46,-612 l 12,-128 h 79 c 54,0 80,4 82,13 2,6 13,71 26,142 12,72 28,162 35,200 8,39 28,149 45,245 17,96 35,195 40,220 5,25 23,124 40,220 17,96 37,207 45,247 8,40 15,77 15,83 0,7 -27,10 -77,8 l -78,-3 -8,-35 c -27,-122 -108,-653 -128,-840 -13,-119 -29,-155 -29,-65 0,84 -36,576 -57,778 l -17,167 h -77 c -76,0 -77,0 -83,-27 z" />
    <path
       style="fill:#ea3e4e;fill-opacity:1"
       id="path6"
       d="m 3716,6371 c -3,-4 -19,-86 -36,-182 -17,-96 -41,-232 -55,-304 -13,-71 -36,-195 -50,-275 -15,-80 -35,-193 -46,-252 -43,-243 -59,-334 -59,-346 0,-10 44,-12 219,-10 298,4 291,-2 340,278 17,96 35,195 41,220 5,25 15,77 21,115 6,39 22,131 36,205 47,260 73,415 73,446 0,17 -9,43 -21,58 -40,51 -62,56 -268,56 -104,0 -192,-4 -195,-9 z m 309,-155 c 21,-15 21,-14 -24,-256 -17,-91 -42,-231 -121,-665 -10,-55 -22,-108 -26,-118 -10,-27 -46,-37 -131,-37 h -76 l 7,48 c 3,26 15,94 26,152 11,58 33,179 49,270 17,91 42,228 56,305 15,77 31,169 36,205 17,110 16,110 107,110 51,0 85,-5 97,-14 z" />
    <path
       style="fill:#ea3e4e;fill-opacity:1"
       id="path8"
       d="m 5880,6378 c 0,-7 -41,-237 -75,-418 -20,-107 -47,-258 -61,-335 -14,-77 -31,-174 -38,-215 -8,-41 -26,-142 -40,-225 -15,-82 -29,-158 -32,-167 -5,-17 9,-18 208,-18 189,0 217,2 248,19 51,27 68,57 85,151 9,47 27,144 40,215 22,117 37,199 96,530 57,315 62,360 48,390 -8,15 -27,38 -42,49 -26,19 -44,21 -233,24 -112,2 -204,2 -204,0 z m 314,-167 c 17,-19 16,-30 -24,-243 -22,-123 -50,-272 -61,-333 -11,-60 -26,-141 -34,-180 -7,-38 -21,-115 -31,-170 -24,-134 -35,-145 -143,-145 -44,0 -82,4 -85,8 -2,4 1,37 8,72 14,69 26,132 82,440 59,326 85,473 91,510 9,55 18,60 103,60 63,0 80,-3 94,-19 z" />
    <path
       style="fill:#ea3e4e;fill-opacity:1"
       id="path10"
       d="m 6497,6373 c -4,-3 -7,-28 -7,-54 0,-26 -7,-132 -15,-236 -22,-267 -43,-538 -60,-758 -8,-104 -17,-220 -20,-257 l -6,-68 h 79 80 l 60,163 c 34,89 109,288 167,442 217,576 285,758 285,767 0,5 -37,8 -82,6 l -81,-3 -37,-110 c -51,-149 -149,-433 -200,-580 -23,-66 -53,-155 -66,-197 -25,-77 -44,-107 -44,-68 0,11 5,62 10,113 6,51 17,162 25,247 9,85 24,245 35,355 27,275 33,245 -48,245 -38,0 -72,-3 -75,-7 z" />
    <path
       style="fill:#ea3e4e;fill-opacity:1"
       id="path12"
       d="m 4824,6136 c -56,-26 -81,-53 -115,-124 -31,-63 -31,-181 0,-267 11,-32 21,-62 21,-65 0,-4 -29,-26 -65,-49 -105,-70 -158,-150 -174,-264 -46,-325 246,-496 502,-295 l 38,30 53,-58 53,-59 41,29 c 25,17 39,33 35,40 -4,6 -26,36 -50,68 -24,31 -43,61 -43,67 0,6 11,28 24,49 23,37 86,158 86,165 0,7 -76,57 -86,57 -5,0 -26,-34 -47,-75 -22,-41 -44,-75 -50,-75 -7,0 -20,15 -31,33 -31,53 -136,265 -136,274 0,4 22,23 49,41 74,50 131,111 158,170 21,46 25,65 21,132 -3,69 -6,83 -34,117 -38,47 -106,83 -159,83 -22,0 -63,-11 -91,-24 z m 150,-105 c 54,-57 44,-139 -29,-220 -34,-38 -103,-88 -109,-80 -9,12 -36,100 -41,135 -21,135 101,247 179,165 z m -166,-534 c 12,-29 54,-109 93,-177 l 70,-125 -48,-43 c -101,-89 -197,-92 -272,-6 -99,112 -70,280 63,370 28,19 56,34 62,34 5,0 20,-24 32,-53 z" />
    <path
       style="fill:#ea3e4e;fill-opacity:1"
       id="path14"
       d="m 2776,4583 c -3,-120 -9,-273 -13,-340 l -6,-123 h 2150 2150 l 7,243 c 3,133 9,286 13,340 l 6,97 H 4933 2783 Z m 650,126 c 4,-6 12,-73 18,-148 l 11,-136 13,97 c 6,53 17,119 24,147 11,49 13,51 45,51 18,0 33,-4 33,-9 0,-5 -9,-56 -20,-112 -10,-57 -28,-156 -40,-219 -11,-63 -23,-127 -26,-142 -5,-24 -11,-28 -39,-28 -40,0 -41,3 -51,170 -7,117 -8,121 -16,70 -5,-30 -16,-97 -25,-147 l -16,-93 h -34 c -37,0 -40,10 -22,90 5,25 16,83 24,130 14,81 40,219 51,268 3,17 11,22 34,22 16,0 32,-5 36,-11 z m 226,6 c 3,-3 -1,-38 -7,-78 -20,-112 -54,-299 -61,-329 -5,-26 -3,-28 24,-28 33,0 27,-14 58,160 8,47 22,128 32,180 l 17,95 h 35 c 19,0 34,-4 33,-10 0,-5 -13,-77 -27,-160 -62,-351 -55,-335 -158,-335 -100,0 -100,-1 -54,257 49,274 43,253 75,253 15,0 30,-2 33,-5 z m 338,-10 c 9,-11 11,-34 6,-80 -9,-90 -13,-97 -50,-93 -29,3 -31,5 -27,38 9,75 7,85 -14,82 -11,-2 -23,-7 -27,-10 -3,-4 -18,-74 -33,-157 -14,-82 -29,-163 -32,-178 -5,-27 -4,-28 23,-25 25,3 30,9 42,61 13,53 16,57 43,57 34,0 36,-15 18,-102 -16,-78 -29,-88 -109,-88 -38,0 -71,5 -78,12 -16,16 -15,64 2,146 8,37 24,123 37,192 12,69 29,133 37,143 20,23 143,25 162,2 z m 117,-27 c -3,-24 -19,-121 -36,-215 -17,-95 -31,-175 -31,-178 0,-3 13,-5 29,-5 35,0 45,-12 37,-46 -6,-22 -11,-24 -75,-24 -37,0 -70,2 -73,5 -3,3 -2,23 3,43 4,20 20,105 34,187 25,146 43,237 50,263 3,6 19,12 36,12 31,0 32,0 26,-42 z m 269,28 c 11,-28 -15,-56 -50,-56 -37,0 -40,-4 -52,-98 l -7,-52 30,6 c 36,7 46,-5 37,-41 -5,-21 -12,-25 -44,-25 h -37 l -12,-69 c -15,-93 -15,-91 18,-91 36,0 44,-10 35,-45 -6,-24 -9,-25 -81,-25 -73,0 -75,1 -69,23 3,12 22,117 42,232 20,116 40,220 45,233 8,20 15,22 74,22 48,0 67,-4 71,-14 z m 192,2 c 16,-16 15,-64 -2,-146 -8,-37 -24,-123 -36,-192 -13,-69 -29,-133 -38,-142 -12,-14 -31,-18 -82,-18 -92,0 -97,7 -83,113 22,163 64,362 80,379 12,14 32,18 83,18 38,0 71,-5 78,-12 z m 322,-4 c 0,-33 -20,-54 -54,-54 -32,0 -33,-1 -45,-65 -6,-36 -9,-70 -7,-74 3,-5 16,-6 30,-4 28,6 40,-9 32,-42 -5,-19 -14,-24 -44,-27 l -37,-3 -20,-110 -20,-110 h -35 c -25,0 -34,4 -33,15 8,65 79,446 88,478 3,8 27,12 75,12 57,0 70,-3 70,-16 z m 190,1 c 9,-11 11,-34 6,-80 -9,-90 -13,-97 -50,-93 -33,3 -33,3 -20,81 7,38 6,39 -22,35 -32,-3 -31,2 -64,-193 -11,-66 -23,-132 -26,-147 -6,-26 -4,-28 24,-28 28,0 30,3 37,46 10,67 14,74 46,74 26,0 29,-3 29,-32 -1,-44 -22,-121 -39,-142 -16,-20 -140,-23 -159,-4 -17,17 -15,50 8,175 63,342 54,323 149,323 49,0 72,-4 81,-15 z m 210,-1 c 0,-24 -19,-54 -34,-54 -15,0 -32,-66 -66,-265 -32,-189 -27,-175 -66,-175 -19,0 -34,3 -34,8 0,4 7,45 15,92 9,47 25,134 35,193 11,60 22,117 25,127 4,12 -1,19 -15,23 -20,5 -29,45 -13,60 3,4 39,7 80,7 60,0 73,-3 73,-16 z m 544,8 c 2,-4 10,-73 17,-152 l 13,-144 13,97 c 6,54 17,122 23,152 11,54 12,55 46,55 38,0 40,-6 23,-80 -9,-40 -79,-417 -79,-427 0,-2 -17,-3 -37,-1 l -38,3 -10,145 c -10,137 -11,142 -19,85 -4,-33 -12,-76 -16,-95 -5,-19 -11,-59 -15,-87 -7,-53 -7,-53 -42,-53 h -35 l 7,48 c 3,26 20,119 36,207 17,88 32,176 35,195 3,19 7,41 10,48 4,13 60,17 68,4 z m 350,-11 c 16,-18 16,-25 -3,-132 -67,-377 -59,-359 -156,-359 -49,0 -66,4 -80,20 -17,19 -17,24 -1,113 9,50 27,150 40,221 17,95 28,133 42,143 29,21 137,17 158,-6 z m 101,9 c 4,-6 -1,-72 -10,-146 -9,-75 -15,-138 -13,-140 3,-2 27,63 55,144 l 50,147 36,3 c 21,2 37,0 37,-4 0,-5 -16,-51 -36,-104 -20,-52 -45,-117 -55,-145 -97,-257 -93,-250 -130,-250 -34,0 -34,0 -31,45 5,104 23,327 26,345 3,11 5,41 5,68 1,45 2,47 30,47 17,0 33,-5 36,-10 z m 328,3 c 2,-5 -4,-111 -14,-238 -10,-126 -18,-238 -18,-247 -1,-14 -10,-18 -37,-18 h -36 l 7,41 7,40 -32,-3 c -27,-2 -34,-9 -44,-38 -10,-31 -15,-35 -48,-38 -21,-2 -38,-1 -38,1 0,6 89,244 144,387 18,47 36,93 39,103 6,17 61,25 70,10 z M 5516,4404 c -3,-9 -6,-22 -6,-30 0,-11 -18,-14 -85,-14 -88,0 -95,4 -79,44 5,13 23,16 91,16 74,0 84,-2 79,-16 z" />
    <path
       style="fill:#ea3e4e;fill-opacity:1"
       id="path16"
       d="m 4474,4650 c -18,-7 -25,-24 -39,-107 -9,-54 -23,-129 -31,-168 -19,-95 -19,-97 13,-93 26,3 28,8 44,88 40,211 50,273 42,280 -4,5 -18,4 -29,0 z" />
    <path
       style="fill:#ea3e4e;fill-opacity:1"
       id="path18"
       d="m 6066,4628 c -29,-147 -47,-246 -52,-292 -7,-55 -6,-56 19,-56 20,0 28,6 31,23 16,80 56,315 56,330 0,27 -48,23 -54,-5 z" />
    <path
       style="fill:#ea3e4e;fill-opacity:1"
       id="path20"
       d="m 6512,4445 c -27,-77 -27,-85 -3,-85 16,0 19,11 25,71 4,39 6,72 4,74 -2,2 -13,-25 -26,-60 z" />
  </g>
</svg>
